<svg width="135" height="227" viewBox="0 0 135 227" fill="none" xmlns="http://www.w3.org/2000/svg">
<g clip-path="url(#clip0_4396_8499)">
<path d="M191.131 181.435L103.657 225.529C99.7716 227.488 95.1885 227.488 91.3016 225.529L58.5196 209.003L33.0403 196.161L3.82782 181.435C-1.27659 178.863 -1.27659 171.574 3.82782 169.002L91.3016 124.908C95.1872 122.949 99.7704 122.949 103.657 124.908L191.131 169.002C196.235 171.574 196.235 178.863 191.131 181.435Z" fill="#262626"/>
<path d="M188.147 29.2529L103.681 -13.5655C99.9291 -15.468 95.4983 -15.4768 91.7373 -13.5919L7.07889 28.8424C4.60852 30.0814 3.36831 32.4611 3.36327 34.8446L3.12404 140.521C3.119 142.905 4.34663 145.292 6.81196 146.54L91.2778 189.358C93.1538 190.31 95.1999 190.787 97.2459 190.792C99.2932 190.797 101.341 190.328 103.222 189.385L187.88 146.949C190.35 145.711 191.589 143.332 191.594 140.947L191.834 35.2701C191.839 32.8867 190.611 30.5007 188.146 29.2504L188.147 29.2529Z" fill="#D9D9D9"/>
<path d="M191.715 35.0586V140.737C191.715 143.12 190.483 145.504 188.015 146.746L103.452 189.373C101.573 190.32 99.5273 190.794 97.48 190.794V35.0586H191.715Z" fill="#8C8C8C"/>
<path d="M188.015 41.0679L103.452 83.6949C99.6949 85.5886 95.2654 85.5886 91.5082 83.6949L59.8178 67.7194L35.1859 55.3034L6.94545 41.0679C2.01102 38.5812 2.01102 31.5353 6.94545 29.0473L91.5082 -13.5797C95.2654 -15.4734 99.6949 -15.4734 103.452 -13.5797L188.015 29.0473C192.949 31.534 192.949 38.58 188.015 41.0679Z" fill="white"/>
<path d="M162.274 16.0723L59.8179 67.7195L35.186 55.3035L137.643 3.65625L162.274 16.0723Z" fill="#DEE6E5"/>
<path d="M59.8179 67.7188V118.082L35.186 105.666V55.3027L59.8179 67.7188Z" fill="#BBCAC9"/>
<path d="M77.3276 172.427C77.3276 172.836 77.6134 173.331 77.9672 173.537L82.9344 176.404C83.2907 176.609 83.579 176.444 83.5803 176.037C83.5803 175.882 83.5387 175.71 83.4645 175.545C83.3902 175.381 83.2844 175.224 83.1572 175.097L81.2006 173.155L81.2132 168.503C83.234 169.264 84.7739 168.126 84.7815 165.691L84.8029 157.969L81.7168 156.187V159.861L80.2852 158.539L80.3948 162.945L78.632 157.106H79.5134V154.916L76.207 153.007L76.1856 160.729C76.1793 163.165 77.7091 166.076 79.7274 167.648L79.7148 172.3L77.7532 171.979C77.4988 171.939 77.3276 172.119 77.3263 172.43L77.3276 172.427Z" fill="#212121"/>
<path d="M54.3787 157.596C53.9632 157.356 53.6245 157.547 53.6232 158.025L53.6182 159.704C53.6169 160.181 53.9531 160.763 54.3686 161.003L69.1719 169.55C69.5861 169.789 69.9248 169.597 69.9261 169.121L69.9311 167.442C69.9324 166.964 69.5962 166.383 69.182 166.144L54.3787 157.597V157.596Z" fill="#212121"/>
<path d="M66.1365 149.079L62.6841 152.839L64.7465 154.03L64.7251 161.498L67.475 163.085L67.4964 155.618L69.5575 156.807L66.1365 149.079Z" fill="#212121"/>
<path d="M57.5106 144.1L54.0581 147.859L56.1205 149.05L56.0991 156.518L58.8477 158.105L58.8691 150.637L60.9316 151.828L57.5106 144.1Z" fill="#212121"/>
<path d="M13.6605 136.115C13.2828 135.897 12.9768 136.072 12.9756 136.505C12.9756 136.937 13.279 137.466 13.6555 137.684L24.2786 143.817C24.6563 144.035 24.9623 143.86 24.9635 143.427C24.9635 142.994 24.6601 142.466 24.2836 142.248L13.6605 136.115Z" fill="white"/>
<path d="M13.6723 131.859C13.2945 131.641 12.9886 131.816 12.9873 132.25C12.986 132.683 13.2908 133.209 13.6672 133.427L30.1388 142.937C30.5153 143.155 30.8213 142.98 30.8225 142.548C30.8225 142.115 30.5191 141.587 30.1426 141.371L13.671 131.861L13.6723 131.859Z" fill="white"/>
<path d="M33.5307 152.018L10.2373 138.569L10.2826 122.777L33.5761 136.226L33.5307 152.018ZM13.6684 133.427L30.14 142.937C30.5164 143.155 30.8224 142.98 30.8237 142.548C30.8237 142.115 30.5202 141.587 30.1438 141.371L13.6721 131.861C13.2944 131.643 12.9884 131.818 12.9872 132.251C12.9872 132.683 13.2906 133.21 13.6671 133.428M13.6797 129.172L30.1513 138.682C30.5278 138.9 30.8337 138.725 30.835 138.292C30.8363 137.859 30.5316 137.333 30.1551 137.115L13.6835 127.605C13.3057 127.387 12.9998 127.562 12.9985 127.994C12.9973 128.426 13.302 128.955 13.6784 129.172M13.6545 137.684L24.2776 143.817C24.6553 144.035 24.9613 143.86 24.9625 143.427C24.9638 142.994 24.6591 142.466 24.2826 142.248L13.6596 136.115C13.2818 135.897 12.9759 136.072 12.9746 136.505C12.9746 136.937 13.278 137.466 13.6545 137.684Z" fill="#212121"/>
<path d="M13.685 127.603C13.3072 127.386 13.0013 127.561 13 127.993C13 128.426 13.3034 128.953 13.6799 129.171L30.1515 138.681C30.528 138.899 30.834 138.724 30.8352 138.291C30.8352 137.859 30.5318 137.331 30.1553 137.114L13.6837 127.603H13.685Z" fill="white"/>
</g>
<defs>
<clipPath id="clip0_4396_8499">
<rect width="194.959" height="242" fill="white" transform="translate(0 -15)"/>
</clipPath>
</defs>
</svg>
